
          <svg xmlns="http://www.w3.org/2000/svg" xmlns:cc="http://creativecommons.org/ns#" xmlns:rdf="http://www.w3.org/1999/02/22-rdf-syntax-ns#" version="1.1" width="926.609375" height="353">
            <defs>
              <style type="text/css">svg {
          background-color: #fff; }
        
        .root text,
        .root tspan {
          font: 12px Arial; }
        
        .root path {
          fill-opacity: 0;
          stroke-width: 2px;
          stroke: #000; }
        
        .root circle {
          fill: #6b6659;
          stroke-width: 2px;
          stroke: #000; }
        
        .anchor text, .any-character text {
          fill: #fff; }
        
        .anchor rect, .any-character rect {
          fill: #6b6659; }
        
        .escape text, .charset-escape text, .literal text {
          fill: #000; }
        
        .escape rect, .charset-escape rect {
          fill: #bada55; }
        
        .literal rect {
          fill: #dae9e5; }
        
        .charset .charset-box {
          fill: #cbcbba; }
        
        .subexp .subexp-label tspan,
        .charset .charset-label tspan,
        .match-fragment .repeat-label tspan {
          font-size: 10px; }
        
        .repeat-label {
          cursor: help; }
        
        .subexp .subexp-label tspan,
        .charset .charset-label tspan {
          dominant-baseline: text-after-edge; }
        
        .subexp .subexp-box {
          stroke: #908c83;
          stroke-dasharray: 6,2;
          stroke-width: 2px;
          fill-opacity: 0; }
        
        .quote {
          fill: #908c83; }
        </style>
            </defs>
            <metadata>
              <rdf:rdf>
                <cc:license rdf:about="http://creativecommons.org/licenses/by/3.0/">
                  <cc:permits rdf:resource="http://creativecommons.org/ns#Reproduction"></cc:permits>
                  <cc:permits rdf:resource="http://creativecommons.org/ns#Distribution"></cc:permits>
                  <cc:requires rdf:resource="http://creativecommons.org/ns#Notice"></cc:requires>
                  <cc:requires rdf:resource="http://creativecommons.org/ns#Attribution"></cc:requires>
                  <cc:permits rdf:resource="http://creativecommons.org/ns#DerivativeWorks"></cc:permits>
                </cc:license>
              </rdf:rdf>
            </metadata>
          <desc>Created with Snap</desc><g class="root" transform="matrix(1,0,0,1,15,9.8955)"><g class="regexp" transform="matrix(1,0,0,1,10,0)"><path d="M10,132.6567q0,-10 10,-10M866.609375,132.6567q0,-10 -10,-10M10,281.60450000000003q0,10 10,10M866.609375,281.60450000000003q0,10 -10,10M0,166.60449981689453q10,0 10,-10V132.6567M876.609375,166.60449981689453q-10,0 -10,-10V132.6567M0,166.60449981689453q10,0 10,10V281.60450000000003M876.609375,166.60449981689453q-10,0 -10,10V281.60450000000003"></path><g transform="matrix(1,0,0,1,20,0)" class="regexp-matches"><path d="M0,122.6567h36.2969M800.312525,122.6567H836.609375M0,291.60450000000003h0M836.6094,291.60450000000003H836.609375"></path><g class="match" transform="matrix(1,0,0,1,36.2969,0)"><path d="M70.703125,122.6567H95.7031M169.0781,122.6567H204.0781M598.6250055175781,122.65674609375H633.625M707,122.6567H732"></path><g class="match-fragment" transform="matrix(1,0,0,1,0,110.6567)"><g class="label anchor"><rect width="70.703125" height="24"></rect><text x="0" y="0" transform="matrix(1,0,0,1,5,17)"><tspan>Start of line</tspan></text></g></g><g class="match-fragment" transform="matrix(1,0,0,1,80.7031,100.6567)"><path d="M0,22q10,0 10,-10v-2q0,-10 10,-10h63.375q10,0 10,10v2q0,10 10,10M15,22q-10,0 -10,10v2q0,10 10,10h73.375q10,0 10,-10v-2q0,-10 -10,-10M98.375,37l5,-5m-5,5l-5,-5"></path><g class="escape" transform="matrix(1,0,0,1,15,10)"><g class="label"><rect width="73.375" height="24" rx="3" ry="3"></rect><text x="0" y="0" transform="matrix(1,0,0,1,5,17)"><tspan>white space</tspan></text></g></g></g><g class="match-fragment subexp" transform="matrix(1,0,0,1,194.0781,0)"><rect rx="3" ry="3" class="subexp-box" transform="matrix(1,0,0,1,0,11.1045)" width="414.5469055175781" height="223.1044921875"></rect><text x="0" y="0" transform="matrix(1,0,0,1,0,11.1045)" class="subexp-label"><tspan>group #1</tspan></text><g class="regexp" transform="matrix(1,0,0,1,10,21.1045)"><path d="M10,67q0,-10 10,-10M384.5469055175781,67q0,-10 -10,-10M10,161.1045q0,10 10,10M384.5469055175781,161.1045q0,10 -10,10M0,101.55224609375q10,0 10,-10V67M394.5469055175781,101.55224609375q-10,0 -10,-10V67M0,101.55224609375q10,0 10,10V161.1045M394.5469055175781,101.55224609375q-10,0 -10,10V161.1045"></path><g transform="matrix(1,0,0,1,20,0)" class="regexp-matches"><path d="M0,57h151.7656M197.781225,57H354.5469055175781M0,171.1045h25M354.5469,171.1045H354.5469055175781"></path><g class="match match-fragment" transform="matrix(1,0,0,1,141.7656,0)"><path d="M10,57q-10,0 -10,10v36q0,10 10,10h46.015625q10,0 10,-10v-36q0,-10 -10,-10M66.015625,72l5,-5m-5,5l-5,-5"></path><g class="charset" transform="matrix(1,0,0,1,10,0)"><rect rx="3" ry="3" class="charset-box" transform="matrix(1,0,0,1,0,11)" width="46.015625" height="92"></rect><text x="0" y="0" class="charset-label" transform="matrix(1,0,0,1,0,11)"><tspan>One of:</tspan></text><g transform="matrix(1,0,0,1,5,16)"><g class="charset-escape" transform="matrix(1,0,0,1,0,0)"><g class="label"><rect width="36.015625" height="24" rx="3" ry="3"></rect><text x="0" y="0" transform="matrix(1,0,0,1,5,17)"><tspan>word</tspan></text></g></g><g class="literal" transform="matrix(1,0,0,1,5.6641,29)"><g class="label"><rect width="24.6875" height="24" rx="3" ry="3"></rect><text x="0" y="0" transform="matrix(1,0,0,1,5,17)"><tspan class="quote">“</tspan><tspan>$</tspan><tspan class="quote">”</tspan></text></g></g><g class="literal" transform="matrix(1,0,0,1,5.6641,58)"><g class="label"><rect width="24.6875" height="24" rx="3" ry="3"></rect><text x="0" y="0" transform="matrix(1,0,0,1,5,17)"><tspan class="quote">“</tspan><tspan>_</tspan><tspan class="quote">”</tspan></text></g></g></g></g></g><g class="match" transform="matrix(1,0,0,1,0,118)"><path d="M172.7344,53.1045H222.7344M244.7344,53.1045H269.7344M307.5469,53.1045H332.5469"></path><g class="match-fragment" transform="matrix(1,0,0,1,0,0)"><path d="M0,53.1045q10,0 10,-10v-33.00000018310547q0,-10 10,-10h172.73440551757812q10,0 10,10v33.00000018310547q0,10 10,10"></path><g class="subexp" transform="matrix(1,0,0,1,15,10)"><rect rx="3" ry="3" class="subexp-box" transform="matrix(1,0,0,1,0,11.1045)" width="182.73440551757812" height="64"></rect><text x="0" y="0" class="subexp-label" transform="matrix(1,0,0,1,0,11.1045)"><tspan>group #2</tspan></text><g class="regexp match" transform="matrix(1,0,0,1,10,21.1045)"><path d="M49.359375,22H74.3594"></path><g class="match-fragment literal" transform="matrix(1,0,0,1,0,10)"><g class="label"><rect width="49.359375" height="24" rx="3" ry="3"></rect><text x="0" y="0" transform="matrix(1,0,0,1,5,17)"><tspan class="quote">“</tspan><tspan>async</tspan><tspan class="quote">”</tspan></text></g></g><g class="match-fragment" transform="matrix(1,0,0,1,59.3594,0)"><path d="M0,22q10,0 10,-10v-2q0,-10 10,-10h63.375q10,0 10,10v2q0,10 10,10M15,22q-10,0 -10,10v2q0,10 10,10h73.375q10,0 10,-10v-2q0,-10 -10,-10M98.375,37l5,-5m-5,5l-5,-5"></path><g class="escape" transform="matrix(1,0,0,1,15,10)"><g class="label"><rect width="73.375" height="24" rx="3" ry="3"></rect><text x="0" y="0" transform="matrix(1,0,0,1,5,17)"><tspan>white space</tspan></text></g></g></g></g></g></g><g class="match-fragment literal" transform="matrix(1,0,0,1,222.7344,41.1045)"><g class="label"><rect width="22" height="24" rx="3" ry="3"></rect><text x="0" y="0" transform="matrix(1,0,0,1,5,17)"><tspan class="quote">“</tspan><tspan>(</tspan><tspan class="quote">”</tspan></text></g></g><g class="match-fragment" transform="matrix(1,0,0,1,254.7344,15.1045)"><path d="M0,38q10,0 10,-10v-18q0,-10 10,-10h27.8125q10,0 10,10v18q0,10 10,10M10,23l5,5m-5,-5l-5,5M15,38q-10,0 -10,10v7q0,10 10,10h37.8125q10,0 10,-10v-7q0,-10 -10,-10"></path><g class="charset" transform="matrix(1,0,0,1,15,10)"><rect rx="3" ry="3" class="charset-box" transform="matrix(1,0,0,1,0,11)" width="37.8125" height="34"></rect><text x="0" y="0" class="charset-label" transform="matrix(1,0,0,1,0,11)"><tspan>None of:</tspan></text><g transform="matrix(1,0,0,1,7.9063,16)"><g class="literal" transform="matrix(1,0,0,1,0,0)"><g class="label"><rect width="22" height="24" rx="3" ry="3"></rect><text x="0" y="0" transform="matrix(1,0,0,1,5,17)"><tspan class="quote">“</tspan><tspan>)</tspan><tspan class="quote">”</tspan></text></g></g></g></g></g><g class="match-fragment literal" transform="matrix(1,0,0,1,332.5469,41.1045)"><g class="label"><rect width="22" height="24" rx="3" ry="3"></rect><text x="0" y="0" transform="matrix(1,0,0,1,5,17)"><tspan class="quote">“</tspan><tspan>)</tspan><tspan class="quote">”</tspan></text></g></g></g></g></g></g><g class="match-fragment" transform="matrix(1,0,0,1,618.625,100.6567)"><path d="M0,22q10,0 10,-10v-2q0,-10 10,-10h63.375q10,0 10,10v2q0,10 10,10M15,22q-10,0 -10,10v2q0,10 10,10h73.375q10,0 10,-10v-2q0,-10 -10,-10M98.375,37l5,-5m-5,5l-5,-5"></path><g class="escape" transform="matrix(1,0,0,1,15,10)"><g class="label"><rect width="73.375" height="24" rx="3" ry="3"></rect><text x="0" y="0" transform="matrix(1,0,0,1,5,17)"><tspan>white space</tspan></text></g></g></g><g class="match-fragment literal" transform="matrix(1,0,0,1,732,110.6567)"><g class="label"><rect width="32.015625" height="24" rx="3" ry="3"></rect><text x="0" y="0" transform="matrix(1,0,0,1,5,17)"><tspan class="quote">“</tspan><tspan>=&gt;</tspan><tspan class="quote">”</tspan></text></g></g></g><g class="match" transform="matrix(1,0,0,1,0,239.1045)"><path d="M70.703125,52.5H95.7031M169.0781,52.5H219.0781M361.8125,52.5H411.8125M471.84375,52.5H506.8438M661.234425,52.5H716.2344M789.6094,52.5H814.6094"></path><g class="match-fragment" transform="matrix(1,0,0,1,0,40.5)"><g class="label anchor"><rect width="70.703125" height="24"></rect><text x="0" y="0" transform="matrix(1,0,0,1,5,17)"><tspan>Start of line</tspan></text></g></g><g class="match-fragment" transform="matrix(1,0,0,1,80.7031,30.5)"><path d="M0,22q10,0 10,-10v-2q0,-10 10,-10h63.375q10,0 10,10v2q0,10 10,10M15,22q-10,0 -10,10v2q0,10 10,10h73.375q10,0 10,-10v-2q0,-10 -10,-10M98.375,37l5,-5m-5,5l-5,-5"></path><g class="escape" transform="matrix(1,0,0,1,15,10)"><g class="label"><rect width="73.375" height="24" rx="3" ry="3"></rect><text x="0" y="0" transform="matrix(1,0,0,1,5,17)"><tspan>white space</tspan></text></g></g></g><g class="match-fragment" transform="matrix(1,0,0,1,194.0781,9.3955)"><path d="M0,43.1045q10,0 10,-10v-23.00000018310547q0,-10 10,-10h167.73440551757812q10,0 10,10v23.00000018310547q0,10 10,10"></path><g class="subexp" transform="matrix(1,0,0,1,15,10)"><rect rx="3" ry="3" class="subexp-box" transform="matrix(1,0,0,1,0,11.1045)" width="177.73440551757812" height="54"></rect><text x="0" y="0" class="subexp-label" transform="matrix(1,0,0,1,0,11.1045)"><tspan>group #3</tspan></text><g class="regexp match" transform="matrix(1,0,0,1,10,21.1045)"><path d="M49.359375,12H69.3594"></path><g class="match-fragment literal" transform="matrix(1,0,0,1,0,0)"><g class="label"><rect width="49.359375" height="24" rx="3" ry="3"></rect><text x="0" y="0" transform="matrix(1,0,0,1,5,17)"><tspan class="quote">“</tspan><tspan>async</tspan><tspan class="quote">”</tspan></text></g></g><g class="match-fragment" transform="matrix(1,0,0,1,59.3594,0)"><path d="M10,12q-10,0 -10,10v2q0,10 10,10h73.375q10,0 10,-10v-2q0,-10 -10,-10M93.375,27l5,-5m-5,5l-5,-5"></path><g class="escape" transform="matrix(1,0,0,1,10,0)"><g class="label"><rect width="73.375" height="24" rx="3" ry="3"></rect><text x="0" y="0" transform="matrix(1,0,0,1,5,17)"><tspan>white space</tspan></text></g></g></g></g></g></g><g class="match-fragment literal" transform="matrix(1,0,0,1,411.8125,40.5)"><g class="label"><rect width="60.03125" height="24" rx="3" ry="3"></rect><text x="0" y="0" transform="matrix(1,0,0,1,5,17)"><tspan class="quote">“</tspan><tspan>function</tspan><tspan class="quote">”</tspan></text></g></g><g class="match-fragment" transform="matrix(1,0,0,1,481.8438,0)"><path d="M0,52.5q10,0 10,-10v-32.5q0,-10 10,-10h169.390625q10,0 10,10v32.5q0,10 10,10"></path><g class="subexp regexp match" transform="matrix(1,0,0,1,15,10)"><path d="M83.375,42.5H118.375"></path><g class="match-fragment" transform="matrix(1,0,0,1,0,30.5)"><path d="M10,12q-10,0 -10,10v2q0,10 10,10h73.375q10,0 10,-10v-2q0,-10 -10,-10M93.375,27l5,-5m-5,5l-5,-5"></path><g class="escape" transform="matrix(1,0,0,1,10,0)"><g class="label"><rect width="73.375" height="24" rx="3" ry="3"></rect><text x="0" y="0" transform="matrix(1,0,0,1,5,17)"><tspan>white space</tspan></text></g></g></g><g class="match-fragment" transform="matrix(1,0,0,1,108.375,0)"><path d="M10,42.5q-10,0 -10,10v21.5q0,10 10,10h46.015625q10,0 10,-10v-21.5q0,-10 -10,-10M66.015625,57.5l5,-5m-5,5l-5,-5"></path><g class="charset" transform="matrix(1,0,0,1,10,0)"><rect rx="3" ry="3" class="charset-box" transform="matrix(1,0,0,1,0,11)" width="46.015625" height="63"></rect><text x="0" y="0" class="charset-label" transform="matrix(1,0,0,1,0,11)"><tspan>One of:</tspan></text><g transform="matrix(1,0,0,1,5,16)"><g class="charset-escape" transform="matrix(1,0,0,1,0,0)"><g class="label"><rect width="36.015625" height="24" rx="3" ry="3"></rect><text x="0" y="0" transform="matrix(1,0,0,1,5,17)"><tspan>word</tspan></text></g></g><g class="literal" transform="matrix(1,0,0,1,5.6641,29)"><g class="label"><rect width="24.6875" height="24" rx="3" ry="3"></rect><text x="0" y="0" transform="matrix(1,0,0,1,5,17)"><tspan class="quote">“</tspan><tspan>$</tspan><tspan class="quote">”</tspan></text></g></g></g></g></g></g></g><g class="match-fragment" transform="matrix(1,0,0,1,701.2344,30.5)"><path d="M0,22q10,0 10,-10v-2q0,-10 10,-10h63.375q10,0 10,10v2q0,10 10,10M15,22q-10,0 -10,10v2q0,10 10,10h73.375q10,0 10,-10v-2q0,-10 -10,-10M98.375,37l5,-5m-5,5l-5,-5"></path><g class="escape" transform="matrix(1,0,0,1,15,10)"><g class="label"><rect width="73.375" height="24" rx="3" ry="3"></rect><text x="0" y="0" transform="matrix(1,0,0,1,5,17)"><tspan>white space</tspan></text></g></g></g><g class="match-fragment literal" transform="matrix(1,0,0,1,814.6094,40.5)"><g class="label"><rect width="22" height="24" rx="3" ry="3"></rect><text x="0" y="0" transform="matrix(1,0,0,1,5,17)"><tspan class="quote">“</tspan><tspan>(</tspan><tspan class="quote">”</tspan></text></g></g></g></g></g><path d="M10,166.60449981689453H0M886.609375,166.60449981689453H896.609375"></path><circle cx="0" cy="166.60449981689453" r="5"></circle><circle cx="896.609375" cy="166.60449981689453" r="5"></circle></g></svg>
        