<?xml version="1.0" standalone="no"?><!DOCTYPE svg PUBLIC "-//W3C//DTD SVG 1.1//EN" "http://www.w3.org/Graphics/SVG/1.1/DTD/svg11.dtd"><svg t="1645800962487" class="icon" viewBox="0 0 1024 1024" version="1.1" xmlns="http://www.w3.org/2000/svg" p-id="1223" xmlns:xlink="http://www.w3.org/1999/xlink" width="200" height="200"><defs><style type="text/css"></style></defs><path d="M652.736 699.904H371.2a46.336 46.336 0 0 1-47.168-47.168V371.2c0-26.688 20.48-47.168 47.168-47.168H652.8c26.688 0 47.168 20.48 47.168 47.168V652.8c0 26.688-20.48 47.168-47.168 47.168z m-234.24-94.336h187.072V418.432H418.432v187.136z" fill="#172B4D" p-id="1224"></path><path d="M794.24 418.432h-141.504a46.336 46.336 0 0 1-47.168-47.168v-141.44A189.248 189.248 0 0 1 794.24 41.024a189.248 189.248 0 0 1 188.672 188.672c-1.6 103.808-86.464 188.672-188.672 188.672z m-94.336-94.336h94.336c51.84 0 94.336-42.432 94.336-94.336 0-51.84-42.496-94.336-94.336-94.336-51.904 0-94.336 42.432-94.336 94.336v94.336zM371.264 418.432h-141.44A189.248 189.248 0 0 1 41.024 229.76 191.36 191.36 0 0 1 231.36 42.688a189.248 189.248 0 0 1 188.672 188.672v141.44a48.448 48.448 0 0 1-48.768 45.632zM231.36 137.024c-51.904 0-94.336 42.432-94.336 94.336 0 51.84 42.432 94.336 94.336 94.336h94.336V231.36C324.096 179.456 281.6 136.96 231.36 136.96zM794.24 981.312a189.248 189.248 0 0 1-188.672-188.672v-141.44c0-26.752 20.416-47.232 47.168-47.232h141.44a189.248 189.248 0 0 1 188.736 188.672c-1.6 103.808-86.464 188.672-188.672 188.672z m-94.336-281.408v94.336c0 51.84 42.432 94.336 94.336 94.336 51.84 0 94.336-42.496 94.336-94.336 0-51.84-42.496-94.336-94.336-94.336h-94.336zM231.36 981.312a189.248 189.248 0 0 1-188.672-188.672 189.248 189.248 0 0 1 188.672-188.672h141.44c26.752 0 47.232 20.48 47.232 47.168v141.504c-1.6 103.808-86.464 188.672-188.672 188.672z m0-281.408c-51.904 0-94.336 42.432-94.336 94.336 0 51.84 42.432 94.336 94.336 94.336 51.84 0 94.336-42.496 94.336-94.336v-94.336H231.36z" fill="#172B4D" p-id="1225"></path></svg>